<?xml version="1.0" encoding="utf-8"?>
<!-- Generator: Adobe Illustrator 16.0.0, SVG Export Plug-In . SVG Version: 6.00 Build 0)  -->
<!DOCTYPE svg PUBLIC "-//W3C//DTD SVG 1.1//EN" "http://www.w3.org/Graphics/SVG/1.1/DTD/svg11.dtd">
<svg version="1.1" id="Layer_1" xmlns="http://www.w3.org/2000/svg" xmlns:xlink="http://www.w3.org/1999/xlink" x="0px" y="0px"
	 width="650px" height="422.885px" viewBox="0 0 650 422.885" enable-background="new 0 0 650 422.885" xml:space="preserve">
<g>
	<path fill="#00FFCC" d="M150.659,63.135l101.85,251.349l-42.885,108.401L54.765,47.649C37.492,5.956,6.52,2.979,2.351,0.595
		C1.16,0,2.351,0,1.16,0h177.493c-13.7,2.979-36.333,8.935-36.333,30.972C142.32,40.501,146.489,53.605,150.659,63.135z
		 M391.883,63.135l101.254,251.349l-42.884,108.401L295.393,47.649C277.524,4.765,247.744,3.574,242.979,0.595
		C241.787,0,242.979,0,241.787,0H419.28c-14.295,2.979-36.332,8.935-36.332,31.567C382.948,42.289,387.713,53.605,391.883,63.135z
		 M650.974,0c-19.06,4.765-53.009,14.295-81.003,66.113c3.574-8.339,5.956-17.273,5.956-25.612
		c0-30.972-32.163-37.523-44.672-40.501H650.974z"/>
</g>
</svg>
