<?xml version="1.0" encoding="utf-8"?>
<!-- Generator: Adobe Illustrator 16.0.0, SVG Export Plug-In . SVG Version: 6.00 Build 0)  -->
<!DOCTYPE svg PUBLIC "-//W3C//DTD SVG 1.1//EN" "http://www.w3.org/Graphics/SVG/1.1/DTD/svg11.dtd">
<svg version="1.1" id="Layer_1" xmlns="http://www.w3.org/2000/svg" xmlns:xlink="http://www.w3.org/1999/xlink" x="0px" y="0px"
	 width="89.597px" height="21.668px" viewBox="0 0 89.597 21.668" enable-background="new 0 0 89.597 21.668" xml:space="preserve">
<g>
	<path fill="#333333" d="M7.793,3.556l4.788,11.817l-2.016,5.096l-7.28-17.64c-0.812-1.96-2.268-2.1-2.464-2.212
		c-0.056-0.028,0-0.028-0.056-0.028h8.344c-0.644,0.14-1.708,0.42-1.708,1.456C7.401,2.492,7.597,3.108,7.793,3.556z M19.133,3.556
		l4.761,11.817l-2.017,5.096l-7.279-17.64c-0.841-2.016-2.24-2.072-2.464-2.212c-0.056-0.028,0-0.028-0.056-0.028h8.344
		c-0.672,0.14-1.708,0.42-1.708,1.484C18.713,2.576,18.938,3.108,19.133,3.556z M31.313,0.588c-0.896,0.224-2.492,0.672-3.809,3.108
		c0.168-0.392,0.28-0.812,0.28-1.204c0-1.456-1.512-1.764-2.1-1.904H31.313z"/>
	<path fill="#333333" d="M26.666,17.696c0-3.92,4.844-4.368,6.664-4.396c-2.576,0.476-2.996,2.408-2.996,3.611
		c0,1.82,0.868,3.024,2.239,3.024c0.364,0,0.729-0.056,1.093-0.196c-1.204,0.756-2.437,0.868-3.5,0.868
		C28.458,20.608,26.666,19.852,26.666,17.696z M28.653,9.688c0-1.008,0.812-1.82,1.82-1.82s1.82,0.812,1.82,1.82
		c0,0.98-0.812,1.792-1.82,1.792S28.653,10.668,28.653,9.688z M35.514,18.396v-7.28c0-2.548-1.008-3.5-2.072-3.808h0.028
		c5.012,0,5.656,2.828,5.656,5.264v5.376c0,1.345,0.195,1.988,1.399,2.128c-0.644,0.28-1.624,0.477-2.38,0.477
		C37.109,20.552,35.514,20.356,35.514,18.396z"/>
	<path fill="#333333" d="M43.577,18.06v-7.812c0-1.12-0.756-2.101-1.848-2.213l5.487-0.699V18.2c0,1.456,0.784,1.849,1.4,2.017
		h-6.468C42.766,20.048,43.577,19.628,43.577,18.06z M51.978,17.976v-7.504c0-1.54-0.757-2.437-2.072-2.437
		c-0.477,0-1.064,0.112-1.596,0.364c1.344-0.924,2.884-1.063,3.556-1.063c0.924,0,3.724,0.279,3.724,3.668v7.168
		c0,1.512,0.84,1.876,1.456,2.044h-6.3C51.277,20.048,51.978,19.628,51.978,17.976z"/>
	<path fill="#333333" d="M69.869,3.108l-0.028,14.561c0,1.399,0.532,2.239,1.652,2.548h-7.952c0.896-0.196,2.1-0.729,2.1-2.828
		V3.136c0-1.876-1.288-2.296-2.155-2.492h8.567C71.185,0.84,69.869,1.26,69.869,3.108z M80.733,14.56
		c-0.028,0.14-0.7,6.216-0.7,6.216c-1.232-0.42-3.221-0.616-5.013-0.672C77.849,19.768,79.109,18.396,80.733,14.56z"/>
	<path fill="#333333" d="M84.261,18.06v-7.812c0-1.12-0.756-2.101-1.848-2.213L87.9,7.336V18.2c0,1.456,0.784,1.849,1.372,2.017
		h-6.439C83.449,20.048,84.261,19.628,84.261,18.06z M84.457,1.988c0-0.98,0.812-1.792,1.819-1.792c0.98,0,1.792,0.812,1.792,1.792
		c0,1.008-0.812,1.82-1.792,1.82C85.269,3.808,84.457,2.996,84.457,1.988z"/>
</g>
</svg>
